<?xml version="1.0" encoding="UTF-8"?>
<svg id="Layer_1" xmlns="http://www.w3.org/2000/svg" version="1.1" viewBox="0 0 2495.7 649.9">
  <!-- Generator: Adobe Illustrator 29.6.1, SVG Export Plug-In . SVG Version: 2.1.1 Build 9)  -->
  <defs>
    <style>
      .st0 {
        fill: #4bc3fe;
      }
    </style>
  </defs>
  <g>
    <ellipse class="st0" cx="346.1" cy="233.7" rx="111.6" ry="38.8"/>
    <ellipse class="st0" cx="312.6" cy="320.9" rx="78.1" ry="38.8"/>
    <ellipse class="st0" cx="272.6" cy="405.9" rx="38" ry="38.8"/>
  </g>
  <g>
    <path class="st0" d="M545.4,445.9v-248.8h154.6v38.8h-110.3v66.4h107.3v38.5h-107.3v105.1h-44.3Z"/>
    <path class="st0" d="M757.2,197c14.6,0,25.5,11.2,25.5,25.2s-10.9,25.2-25.5,25.2-25.5-10.9-25.5-25.2,11.2-25.2,25.5-25.2ZM735.7,445.9v-169.9h42.9v169.9h-42.9Z"/>
    <path class="st0" d="M869.9,445.9h-42.9v-169.9h41.5v28.9c7.8-19.8,30-33,56.5-33,40.9,0,63.7,30,63.7,72.2v101.8h-42.9v-94.7c0-24.2-10.9-41.9-36.4-41.9s-39.5,17-39.5,41.5v95Z"/>
    <path class="st0" d="M1077,445.9h-42.9v-169.9h41.5v28.9c7.8-19.8,30-33,56.5-33,40.9,0,63.7,30,63.7,72.2v101.8h-42.9v-94.7c0-24.2-10.9-41.9-36.4-41.9s-39.5,17-39.5,41.5v95Z"/>
    <path class="st0" d="M1272.8,375.4c2.7,25.5,19.1,42.9,49.4,42.9s36.8-9.2,45-22.1h39.8c-11.6,30.3-44.3,53.8-84.8,53.8-57.9,0-91.6-38.5-91.6-89.2s37.1-88.9,89.6-88.9,89.2,37.1,89.2,89.6v14h-136.6ZM1272.4,347.2h96c-2.7-26.2-20.1-44.6-47.7-44.6s-45,17-48.4,44.6Z"/>
    <path class="st0" d="M1579.9,306v-30h42.2v167.6c0,43.9-39.8,77.3-92.6,77.3s-78.3-19.4-91.3-58.2h42.6c8.2,16.3,24.2,25.2,48.4,25.2s50.1-16,50.1-44.3v-33c-9.9,17-31.7,31.3-59.6,31.3-50.4,0-84.1-37.8-84.1-84.8s33.7-85.1,84.1-85.1,52.1,15,60.3,34.1ZM1579.3,357c0-30-23.2-49.7-51.4-49.7s-49.7,21.1-49.7,49.7,19.4,49.4,49.7,49.4,51.4-19.8,51.4-49.4Z"/>
    <path class="st0" d="M1847.6,276v169.9h-41.2v-29.3c-9.9,17.4-32.4,33.4-62,33.4-50.4,0-85.8-40.2-85.8-88.9s35.4-89.2,85.8-89.2,52.8,15.3,61.3,33.4v-29.3h41.9ZM1752.6,414.6c28.3,0,52.1-20.8,52.1-53.5s-23.8-53.8-52.1-53.8-51.1,24.2-51.1,53.8,20.4,53.5,51.1,53.5Z"/>
    <path class="st0" d="M1937.5,445.9h-42.9v-169.9h41.5v28.9c7.8-19.8,30-33,56.5-33,40.9,0,63.7,30,63.7,72.2v101.8h-42.9v-94.7c0-24.2-10.9-41.9-36.4-41.9s-39.5,17-39.5,41.5v95Z"/>
    <path class="st0" d="M2126.2,395.2c2.4,15.7,12.6,24.9,31.3,24.9s27.9-8.2,27.9-21.8-5.8-16.7-18.4-20.1l-25.2-6.8c-29.3-7.5-45.6-21.8-45.6-49s26.6-50.4,60.3-50.4,56.9,21.1,60.3,50.7h-36.4c-.7-10.6-7.8-20.8-22.8-20.8s-22.1,7.2-22.1,18.4,6.1,14.6,18.4,18l30.3,8.5c27.2,7.5,40.5,23.2,40.5,47.7s-32,55.5-66.7,55.5-63.7-16.3-68.1-54.8h36.4Z"/>
  </g>
</svg>